<svg xmlns="http://www.w3.org/2000/svg" width="30" height="30" viewBox="0 0 30 30">
  <g id="Group_3954" data-name="Group 3954" transform="translate(-1408 -648)">
    <rect id="Rectangle_6275" data-name="Rectangle 6275" width="30" height="30" rx="2" transform="translate(1408 648)" fill="#21a4f9"/>
    <g id="Group_3950" data-name="Group 3950" transform="translate(1413.141 653)">
      <g id="Path_943" data-name="Path 943" transform="translate(-610.426 -792.482)" fill="none" stroke-miterlimit="10">
        <path d="M610.426,808.467v4.015h20v-4.015Z" stroke="none"/>
        <path d="M 611.4262084960938 809.4671020507812 L 611.4262084960938 811.482177734375 L 629.4262084960938 811.482177734375 L 629.4262084960938 809.4671020507812 L 611.4262084960938 809.4671020507812 M 610.4262084960938 808.4671020507812 L 630.4262084960938 808.4671020507812 L 630.4262084960938 812.482177734375 L 610.4262084960938 812.482177734375 L 610.4262084960938 808.4671020507812 Z" stroke="none" fill="#fff"/>
      </g>
      <g id="Path_944" data-name="Path 944" transform="translate(-610.411 -792.467)" fill="none" stroke-miterlimit="10">
        <path d="M626.4,800.274H623.4v-7.807h-5.985v7.807h-2.992l5.985,6.246Z" stroke="none"/>
        <path d="M 620.4111938476562 805.074462890625 L 624.0529174804688 801.274169921875 L 622.4036865234375 801.274169921875 L 622.4036865234375 793.467041015625 L 618.418701171875 793.467041015625 L 618.418701171875 801.274169921875 L 616.7695922851562 801.274169921875 L 620.4111938476562 805.074462890625 M 620.4111938476562 806.519775390625 L 614.4263305664062 800.274169921875 L 617.418701171875 800.274169921875 L 617.418701171875 792.467041015625 L 623.4036865234375 792.467041015625 L 623.4036865234375 800.274169921875 L 626.3961791992188 800.274169921875 L 620.4111938476562 806.519775390625 Z" stroke="none" fill="#fff"/>
      </g>
    </g>
  </g>
</svg>
